<svg xmlns="http://www.w3.org/2000/svg" width="17" height="16" viewBox="0 0 17 16">
  <path fill="#1A84EE" fill-rule="evenodd" d="M180.499981,614.250033 C181.895811,614.250033 183.187475,614.59899 184.374972,615.296905 C185.562469,615.99482 186.505175,616.937526 187.20309,618.125024 C187.901005,619.312521 188.249962,620.604184 188.249962,622.000014 C188.249962,623.395844 187.901005,624.687508 187.20309,625.875005 C186.505175,627.062502 185.562469,628.005208 184.374972,628.703123 C183.187475,629.401038 181.895811,629.749996 180.499981,629.749996 C179.104151,629.749996 177.812487,629.401038 176.62499,628.703123 C175.437493,628.005208 174.494787,627.062502 173.796872,625.875005 C173.098957,624.687508 172.749999,623.395844 172.749999,622.000014 C172.749999,620.604184 173.098957,619.312521 173.796872,618.125024 C174.494787,616.937526 175.437493,615.99482 176.62499,615.296905 C177.812487,614.59899 179.104151,614.250033 180.499981,614.250033 Z M180.499981,615.750029 C179.374984,615.750029 178.33332,616.031279 177.374988,616.593777 C176.416657,617.156276 175.656242,617.916691 175.093744,618.875022 C174.531245,619.833353 174.249996,620.875017 174.249996,622.000014 C174.249996,623.125012 174.531245,624.166676 175.093744,625.125007 C175.656242,626.083338 176.416657,626.843753 177.374988,627.406251 C178.33332,627.96875 179.374984,628.249999 180.499981,628.249999 C181.624978,628.249999 182.666642,627.96875 183.624973,627.406251 C184.583305,626.843753 185.343719,626.083338 185.906218,625.125007 C186.468717,624.166676 186.749966,623.125012 186.749966,622.000014 C186.749966,620.875017 186.468717,619.833353 185.906218,618.875022 C185.343719,617.916691 184.583305,617.156276 183.624973,616.593777 C182.666642,616.031279 181.624978,615.750029 180.499981,615.750029 Z M184.87497,619.81252 C184.958304,619.895853 184.99997,619.989603 184.99997,620.093769 C184.99997,620.197935 184.958304,620.281268 184.87497,620.343768 L179.499983,625.687506 C179.41665,625.770839 179.3229,625.812505 179.218734,625.812505 C179.114568,625.812505 179.031234,625.770839 178.968735,625.687506 L176.124991,622.843762 C176.041658,622.760429 175.999992,622.666679 175.999992,622.562513 C175.999992,622.458347 176.041658,622.375013 176.124991,622.312514 L176.84374,621.593765 C176.906239,621.531265 176.989573,621.500015 177.093739,621.500015 C177.197905,621.500015 177.291655,621.531265 177.374988,621.593765 L179.218734,623.500011 L183.656223,619.093771 C183.718723,619.031271 183.802057,619.000021 183.906223,619.000021 C184.010389,619.000021 184.104139,619.041688 184.187472,619.125021 L184.87497,619.81252 Z" transform="translate(-172 -614)"/>
</svg>
