<svg xmlns="http://www.w3.org/2000/svg" xmlns:xlink="http://www.w3.org/1999/xlink" width="24" height="24" viewBox="0 0 24 24">
    <defs>
        <path id="a" d="M0 0h24v24H0z"/>
    </defs>
    <g fill="none" fill-rule="evenodd">
        <circle cx="12" cy="12" r="12" fill="#1A84EE" fill-rule="nonzero"/>
        <mask id="b" fill="#fff">
            <use xlink:href="#a"/>
        </mask>
        <g fill="#FFF" mask="url(#b)">
            <path d="M17.962 13.69c-.003-.003-.002-.008-.004-.011l-1.332-1.685a1.052 1.052 0 0 0-.822-.394h-.7a.204.204 0 0 0-.207.2c0 .11.092.2.206.2h.7c.193 0 .378.088.494.236l1.078 1.364H6.625l1.078-1.364A.633.633 0 0 1 8.196 12h.7c.115 0 .207-.09.207-.2 0-.11-.092-.2-.206-.2h-.701c-.32 0-.628.147-.822.393l-1.332 1.685c-.003.004-.001.009-.004.012A.193.193 0 0 0 6 13.8v2.8c0 .552.464 1 1.034 1h9.932c.57 0 1.034-.448 1.034-1v-2.8a.191.191 0 0 0-.038-.11z"/>
            <path d="M8.69 10h1.034v2.6c0 .11.093.2.207.2h4.138c.114 0 .207-.09.207-.2V10h1.034a.208.208 0 0 0 .189-.118.194.194 0 0 0-.034-.215l-3.31-3.6a.218.218 0 0 0-.31 0l-3.31 3.6a.195.195 0 0 0-.034.215.208.208 0 0 0 .189.118z"/>
        </g>
    </g>
</svg>
