<svg width="213" height="305" viewBox="0 0 213 305" fill="none" xmlns="http://www.w3.org/2000/svg">
<path fill-rule="evenodd" clip-rule="evenodd" d="M-62.2439 91.6682C-64.5361 70.3261 -52.4026 52.8035 -35.1429 52.5302C4.12579 51.9084 71.1186 50.8475 110.387 50.2257C127.647 49.9523 143.497 67.0318 145.789 88.3739C148.081 109.716 135.948 127.239 118.688 127.512C79.4195 128.134 12.4267 129.195 -26.8419 129.816C-44.1017 130.09 -59.9516 113.01 -62.2439 91.6682Z" stroke="#33A4FF" stroke-opacity="0.5" stroke-width="4"/>
<path fill-rule="evenodd" clip-rule="evenodd" d="M-65.3279 87.3784C-67.4295 68.6679 -55.0664 53.4791 -37.7135 53.4541C1.76793 53.397 69.1225 53.2989 108.603 53.242C125.956 53.2169 141.728 68.3641 143.829 87.0747C143.829 87.0747 143.829 87.0747 143.829 87.0755C145.931 105.786 133.567 120.974 116.214 120.999C76.7336 121.057 9.37877 121.154 -30.1017 121.212C-47.4546 121.237 -63.2263 106.089 -65.3279 87.3784Z" fill="#0981F3"/>
<path d="M121.906 108.213C109.372 112.214 94.9085 104.238 89.6006 90.3988C84.2927 76.5592 90.1506 62.0962 102.685 58.095C115.219 54.0937 129.682 62.0693 134.99 75.9089C140.298 89.7486 134.44 104.212 121.906 108.213Z" fill="white"/>
<mask id="mask0_875_110698" style="mask-type:alpha" maskUnits="userSpaceOnUse" x="87" y="57" width="50" height="53">
<path d="M121.935 108.239C109.416 112.226 94.9526 104.227 89.6291 90.3729C84.3056 76.519 90.1382 62.0561 102.657 58.0691C115.175 54.0821 129.639 62.0809 134.962 75.9348C140.286 89.7888 134.453 104.252 121.935 108.239Z" fill="white"/>
</mask>
<g mask="url(#mask0_875_110698)">
<path fill-rule="evenodd" clip-rule="evenodd" d="M118.038 97.7485C118.038 97.7485 125.233 104.315 126.894 111.054C129.512 121.674 116.376 118.125 115.952 114.56C116.703 114.714 112.186 105.279 109.236 102.679C106.817 100.548 118.038 97.7485 118.038 97.7485Z" fill="#FFC1B1"/>
<path fill-rule="evenodd" clip-rule="evenodd" d="M126.837 110.095C124.726 103.696 118.216 97.7584 118.216 97.7584C118.216 97.7584 116.637 98.1522 114.786 98.7573L111.735 103.802C116.564 103.473 122.714 106.056 126.011 109.206C126.29 109.473 126.563 109.778 126.837 110.095Z" fill="#FF9898"/>
<path d="M109.527 73.7313C104.306 75.4058 98.5583 72.8005 96.69 67.9123C94.8217 63.024 97.5398 57.7038 102.761 56.0293C107.983 54.3548 113.73 56.9601 115.598 61.8483C117.467 66.7366 114.748 72.0568 109.527 73.7313Z" fill="#313647"/>
<path fill-rule="evenodd" clip-rule="evenodd" d="M123.854 88.2879C133.659 78.9507 127.597 61.7178 113.128 62.4676C105.603 62.8573 96.0857 66.8588 96.4472 76.914C96.6286 81.9385 99.6347 89.2726 105.439 90.4201C107.414 90.8106 118.841 91.76 119.82 89.5821L123.854 88.2879Z" fill="#313647"/>
<path fill-rule="evenodd" clip-rule="evenodd" d="M104.499 83.9145C103.394 83.8503 102.418 85.2937 102.322 87.1358C102.225 88.9773 103.045 90.5252 104.15 90.5893C105.256 90.6533 106.232 89.2099 106.328 87.3679C106.424 85.5258 105.605 83.9785 104.499 83.9145Z" fill="#FFC1B1"/>
<path fill-rule="evenodd" clip-rule="evenodd" d="M114.404 74.0908C109.413 73.8233 105.031 80.5671 104.626 89.1422C104.219 97.7167 107.942 104.895 112.933 105.163C117.924 105.431 122.306 98.6871 122.712 90.1121C123.117 81.5377 119.395 74.3589 114.404 74.0908Z" fill="#FFC1B1"/>
</g>
<path fill-rule="evenodd" clip-rule="evenodd" d="M-147.643 270.986C-154.446 252.32 -146.7 232.776 -130.341 227.334C-78.6474 210.134 27.4488 174.835 79.1415 157.636C95.5004 152.193 114.277 162.912 121.08 181.577C127.883 200.243 120.137 219.787 103.778 225.23C52.0852 242.428 -54.011 277.728 -105.704 294.927C-122.063 300.37 -140.84 289.651 -147.643 270.986Z" fill="#70BA02"/>
<path d="M100.413 214.08C87.8285 218.128 73.3648 210.229 68.1074 196.437C62.85 182.645 68.7898 168.182 81.3744 164.133C93.9589 160.085 108.423 167.984 113.68 181.776C118.937 195.568 112.998 210.031 100.413 214.08Z" fill="#EBF6FF"/>
<mask id="mask1_875_110698" style="mask-type:alpha" maskUnits="userSpaceOnUse" x="66" y="163" width="50" height="53">
<path d="M100.519 214.182C87.9932 218.174 73.5295 210.184 68.2136 196.335C62.8977 182.486 68.7428 168.023 81.2688 164.031C93.7949 160.039 108.259 168.029 113.574 181.878C118.89 195.727 113.045 210.19 100.519 214.182Z" fill="white"/>
</mask>
<g mask="url(#mask1_875_110698)">
<path fill-rule="evenodd" clip-rule="evenodd" d="M102.94 198.726C105.091 202.206 111.303 215.749 110.541 216.342C109.724 216.979 97.6932 221.271 97.8907 220.405C98.2984 218.621 93.8523 205.678 91.0835 202.534C90.0759 201.39 90.525 194.149 92.5362 193.246" fill="#FFC1B1"/>
<path fill-rule="evenodd" clip-rule="evenodd" d="M103.933 200.25C103.634 199.698 103.365 199.228 103.141 198.866L92.5939 193.331C90.5555 194.244 90.1022 201.561 91.1237 202.718C92.4193 204.184 94.0775 207.759 95.4473 211.361C95.8783 212.496 105.667 206.38 103.933 200.25Z" fill="#FF9898"/>
<path fill-rule="evenodd" clip-rule="evenodd" d="M82.6097 175.077C77.7173 177.994 77.9891 187.401 83.2149 196.069C88.441 204.738 96.6558 209.408 101.548 206.491C106.44 203.573 106.169 194.167 100.943 185.498C95.7169 176.83 87.5018 172.16 82.6097 175.077Z" fill="#FFC1B1"/>
<path fill-rule="evenodd" clip-rule="evenodd" d="M80.9417 192.002C79.253 193.008 79.0868 195.821 80.5703 198.28C82.0543 200.738 84.63 201.917 86.3188 200.911C88.0075 199.905 88.1737 197.092 86.6902 194.633C85.2062 192.176 82.6304 190.996 80.9417 192.002Z" fill="#FFC1B1"/>
<path fill-rule="evenodd" clip-rule="evenodd" d="M79.4784 170.411C71.1385 168.516 69.7494 187.281 81.5076 193.008C81.1106 190.973 81.5709 188.992 82.0746 187.077C83.2061 182.779 87.8866 178.911 84.4189 173.845C83.9393 173.144 83.356 172.516 82.7173 171.975C81.8801 171.265 80.8747 170.773 79.8814 170.45L79.4784 170.411Z" fill="#00A777"/>
<path fill-rule="evenodd" clip-rule="evenodd" d="M80.9192 168.24C77.4523 173.492 85.6659 177.247 89.9626 177.887C91.9471 178.182 94.0415 178.509 95.9567 179.358C96.9117 179.782 97.4391 180.712 98.3212 181.282C104.205 169.137 86.3294 160.042 80.9192 168.24Z" fill="#00A777"/>
</g>
</svg>
