<svg width="203" height="61" viewBox="0 0 203 61" fill="none" xmlns="http://www.w3.org/2000/svg">
<g filter="url(#filter0_di_2_17692)">
<path d="M10.9546 14.553H13.0616C13.6636 14.553 14.2513 14.51 14.8246 14.424C15.398 14.338 15.914 14.1803 16.3726 13.951C16.86 13.693 17.247 13.349 17.5336 12.919C17.8203 12.4603 17.9636 11.8727 17.9636 11.156C17.9636 10.2387 17.591 9.479 16.8456 8.877C16.129 8.275 15.2403 7.974 14.1796 7.974C13.1763 7.974 12.345 8.24633 11.6856 8.791C11.0263 9.33567 10.5963 10.0093 10.3956 10.812L3.30063 9.35C3.64463 8.03133 4.16063 6.91333 4.84863 5.996C5.53663 5.05 6.35363 4.29033 7.29963 3.717C8.24563 3.14366 9.29196 2.728 10.4386 2.47C11.614 2.18333 12.8466 2.04 14.1366 2.04C15.484 2.04 16.774 2.212 18.0066 2.556C19.268 2.87133 20.3716 3.38733 21.3176 4.104C22.2636 4.792 23.009 5.66633 23.5536 6.727C24.127 7.78767 24.4136 9.049 24.4136 10.511C24.4136 12.2023 23.9693 13.65 23.0806 14.854C22.192 16.058 20.902 16.832 19.2106 17.176V17.305C20.128 17.4197 20.9306 17.692 21.6186 18.122C22.3353 18.552 22.9373 19.0823 23.4246 19.713C23.912 20.3437 24.2846 21.0603 24.5426 21.863C24.8006 22.6657 24.9296 23.5113 24.9296 24.4C24.9296 25.9193 24.6286 27.2523 24.0266 28.399C23.4533 29.5457 22.665 30.506 21.6616 31.28C20.687 32.0253 19.526 32.5843 18.1786 32.957C16.86 33.3297 15.4553 33.516 13.9646 33.516C11.2413 33.516 8.89063 32.8853 6.91263 31.624C4.96329 30.3627 3.67329 28.3703 3.04263 25.647L9.83663 24.056C10.066 25.1453 10.5246 26.0053 11.2126 26.636C11.9293 27.2667 12.9756 27.582 14.3516 27.582C15.7563 27.582 16.7883 27.2237 17.4476 26.507C18.1356 25.7617 18.4796 24.8157 18.4796 23.669C18.4796 22.809 18.2933 22.1497 17.9206 21.691C17.5766 21.2037 17.118 20.8453 16.5446 20.616C15.9713 20.3867 15.3263 20.2577 14.6096 20.229C13.893 20.1717 13.1763 20.143 12.4596 20.143H10.9546V14.553ZM29.8229 17.778C29.8229 15.972 29.9806 14.1373 30.2959 12.274C30.6399 10.4107 31.2276 8.71933 32.0589 7.2C32.9189 5.68066 34.0799 4.448 35.5419 3.502C37.0039 2.52733 38.8672 2.04 41.1319 2.04C43.3966 2.04 45.2599 2.52733 46.7219 3.502C48.1839 4.448 49.3306 5.68066 50.1619 7.2C51.0219 8.71933 51.6096 10.4107 51.9249 12.274C52.2689 14.1373 52.4409 15.972 52.4409 17.778C52.4409 19.584 52.2689 21.4187 51.9249 23.282C51.6096 25.1453 51.0219 26.8367 50.1619 28.356C49.3306 29.8753 48.1839 31.1223 46.7219 32.097C45.2599 33.043 43.3966 33.516 41.1319 33.516C38.8672 33.516 37.0039 33.043 35.5419 32.097C34.0799 31.1223 32.9189 29.8753 32.0589 28.356C31.2276 26.8367 30.6399 25.1453 30.2959 23.282C29.9806 21.4187 29.8229 19.584 29.8229 17.778ZM36.2729 17.778C36.2729 18.5807 36.3016 19.541 36.3589 20.659C36.4449 21.777 36.6456 22.852 36.9609 23.884C37.2762 24.916 37.7492 25.7903 38.3799 26.507C39.0392 27.2237 39.9566 27.582 41.1319 27.582C42.2786 27.582 43.1816 27.2237 43.8409 26.507C44.5002 25.7903 44.9876 24.916 45.3029 23.884C45.6182 22.852 45.8046 21.777 45.8619 20.659C45.9479 19.541 45.9909 18.5807 45.9909 17.778C45.9909 16.9753 45.9479 16.015 45.8619 14.897C45.8046 13.779 45.6182 12.704 45.3029 11.672C44.9876 10.64 44.5002 9.76567 43.8409 9.049C43.1816 8.33233 42.2786 7.974 41.1319 7.974C39.9566 7.974 39.0392 8.33233 38.3799 9.049C37.7492 9.76567 37.2762 10.64 36.9609 11.672C36.6456 12.704 36.4449 13.779 36.3589 14.897C36.3016 16.015 36.2729 16.9753 36.2729 17.778ZM76.9852 24.959C76.9852 23.7837 77.2002 22.68 77.6302 21.648C78.0888 20.616 78.6908 19.713 79.4362 18.939C80.2102 18.165 81.1132 17.563 82.1452 17.133C83.1772 16.6743 84.2808 16.445 85.4562 16.445C86.6315 16.445 87.7352 16.6743 88.7672 17.133C89.7992 17.563 90.6878 18.165 91.4332 18.939C92.2072 19.713 92.8092 20.616 93.2392 21.648C93.6978 22.68 93.9272 23.7837 93.9272 24.959C93.9272 26.1343 93.6978 27.2523 93.2392 28.313C92.8092 29.345 92.2072 30.248 91.4332 31.022C90.6878 31.796 89.7992 32.4123 88.7672 32.871C87.7352 33.301 86.6315 33.516 85.4562 33.516C84.2808 33.516 83.1772 33.301 82.1452 32.871C81.1132 32.4123 80.2102 31.796 79.4362 31.022C78.6908 30.248 78.0888 29.345 77.6302 28.313C77.2002 27.2523 76.9852 26.1343 76.9852 24.959ZM89.5412 24.959C89.5412 23.8123 89.1398 22.8377 88.3372 22.035C87.5632 21.2323 86.6028 20.831 85.4562 20.831C84.3095 20.831 83.3348 21.2323 82.5322 22.035C81.7582 22.8377 81.3712 23.8123 81.3712 24.959C81.3712 26.1343 81.7582 27.1233 82.5322 27.926C83.3348 28.7287 84.3095 29.13 85.4562 29.13C86.6028 29.13 87.5632 28.7287 88.3372 27.926C89.1398 27.1233 89.5412 26.1343 89.5412 24.959ZM55.3562 10.554C55.3562 9.37867 55.5712 8.275 56.0012 7.243C56.4598 6.211 57.0618 5.308 57.8072 4.534C58.5812 3.76 59.4842 3.158 60.5162 2.728C61.5482 2.26933 62.6518 2.04 63.8272 2.04C65.0025 2.04 66.1062 2.26933 67.1382 2.728C68.1702 3.158 69.0588 3.76 69.8042 4.534C70.5782 5.308 71.1802 6.211 71.6102 7.243C72.0688 8.275 72.2982 9.37867 72.2982 10.554C72.2982 11.7293 72.0688 12.833 71.6102 13.865C71.1802 14.897 70.5782 15.8 69.8042 16.574C69.0588 17.348 68.1702 17.9643 67.1382 18.423C66.1062 18.853 65.0025 19.068 63.8272 19.068C62.6518 19.068 61.5482 18.853 60.5162 18.423C59.4842 17.9643 58.5812 17.348 57.8072 16.574C57.0618 15.8 56.4598 14.897 56.0012 13.865C55.5712 12.833 55.3562 11.7293 55.3562 10.554ZM67.9122 10.554C67.9122 9.40733 67.5108 8.43267 66.7082 7.63C65.9342 6.82733 64.9738 6.426 63.8272 6.426C62.6805 6.426 61.7058 6.82733 60.9032 7.63C60.1292 8.43267 59.7422 9.40733 59.7422 10.554C59.7422 11.7007 60.1292 12.6753 60.9032 13.478C61.7058 14.2807 62.6805 14.682 63.8272 14.682C64.9738 14.682 65.9342 14.2807 66.7082 13.478C67.5108 12.6753 67.9122 11.7007 67.9122 10.554ZM81.5862 1.18L85.1982 3.201L67.4392 34.376L64.1712 32.527L81.5862 1.18ZM110.918 17.778C110.918 15.3413 111.319 13.134 112.122 11.156C112.953 9.178 114.1 7.501 115.562 6.125C117.024 4.72033 118.758 3.64533 120.765 2.9C122.771 2.15467 124.964 1.782 127.344 1.782C129.723 1.782 131.916 2.15467 133.923 2.9C135.929 3.64533 137.664 4.72033 139.126 6.125C140.588 7.501 141.72 9.178 142.523 11.156C143.354 13.134 143.77 15.3413 143.77 17.778C143.77 20.2147 143.354 22.422 142.523 24.4C141.72 26.378 140.588 28.0693 139.126 29.474C137.664 30.85 135.929 31.9107 133.923 32.656C131.916 33.4013 129.723 33.774 127.344 33.774C124.964 33.774 122.771 33.4013 120.765 32.656C118.758 31.9107 117.024 30.85 115.562 29.474C114.1 28.0693 112.953 26.378 112.122 24.4C111.319 22.422 110.918 20.2147 110.918 17.778ZM117.884 17.778C117.884 19.2113 118.099 20.53 118.529 21.734C118.987 22.9093 119.632 23.9413 120.464 24.83C121.295 25.69 122.284 26.3637 123.431 26.851C124.606 27.3383 125.91 27.582 127.344 27.582C128.777 27.582 130.067 27.3383 131.214 26.851C132.389 26.3637 133.392 25.69 134.224 24.83C135.055 23.9413 135.686 22.9093 136.116 21.734C136.574 20.53 136.804 19.2113 136.804 17.778C136.804 16.3733 136.574 15.069 136.116 13.865C135.686 12.661 135.055 11.629 134.224 10.769C133.392 9.88033 132.389 9.19233 131.214 8.705C130.067 8.21767 128.777 7.974 127.344 7.974C125.91 7.974 124.606 8.21767 123.431 8.705C122.284 9.19233 121.295 9.88033 120.464 10.769C119.632 11.629 118.987 12.661 118.529 13.865C118.099 15.069 117.884 16.3733 117.884 17.778ZM149.877 2.556H170.302V8.748H156.585V14.94H169.27V21.132H156.585V33H149.877V2.556ZM176.656 2.556H197.081V8.748H183.364V14.94H196.049V21.132H183.364V33H176.656V2.556Z" fill="#EFF305"/>
</g>
<g filter="url(#filter1_di_2_17692)">
<path d="M2.21063 49.336C2.21063 48.4293 2.35996 47.608 2.65863 46.872C2.96796 46.136 3.39463 45.512 3.93863 45C4.48263 44.4773 5.12796 44.0773 5.87463 43.8C6.62129 43.5227 7.43729 43.384 8.32263 43.384C9.20796 43.384 10.024 43.5227 10.7706 43.8C11.5173 44.0773 12.1626 44.4773 12.7066 45C13.2506 45.512 13.672 46.136 13.9706 46.872C14.28 47.608 14.4346 48.4293 14.4346 49.336C14.4346 50.2427 14.28 51.064 13.9706 51.8C13.672 52.536 13.2506 53.1653 12.7066 53.688C12.1626 54.2 11.5173 54.5947 10.7706 54.872C10.024 55.1493 9.20796 55.288 8.32263 55.288C7.43729 55.288 6.62129 55.1493 5.87463 54.872C5.12796 54.5947 4.48263 54.2 3.93863 53.688C3.39463 53.1653 2.96796 52.536 2.65863 51.8C2.35996 51.064 2.21063 50.2427 2.21063 49.336ZM4.80263 49.336C4.80263 49.8693 4.88263 50.36 5.04263 50.808C5.21329 51.2453 5.45329 51.6293 5.76263 51.96C6.07196 52.28 6.43996 52.5307 6.86663 52.712C7.30396 52.8933 7.78929 52.984 8.32263 52.984C8.85596 52.984 9.33596 52.8933 9.76263 52.712C10.2 52.5307 10.5733 52.28 10.8826 51.96C11.192 51.6293 11.4266 51.2453 11.5866 50.808C11.7573 50.36 11.8426 49.8693 11.8426 49.336C11.8426 48.8133 11.7573 48.328 11.5866 47.88C11.4266 47.432 11.192 47.048 10.8826 46.728C10.5733 46.3973 10.2 46.1413 9.76263 45.96C9.33596 45.7787 8.85596 45.688 8.32263 45.688C7.78929 45.688 7.30396 45.7787 6.86663 45.96C6.43996 46.1413 6.07196 46.3973 5.76263 46.728C5.45329 47.048 5.21329 47.432 5.04263 47.88C4.88263 48.328 4.80263 48.8133 4.80263 49.336ZM19.9711 43.672H23.3631L28.1791 51.544H28.2111V43.672H30.7071V55H27.4431L22.4991 46.936H22.4671V55H19.9711V43.672ZM49.1604 43.672H51.2244L56.1524 55H53.3364L52.3604 52.6H47.9604L47.0164 55H44.2644L49.1604 43.672ZM50.1204 46.968L48.7444 50.488H51.5124L50.1204 46.968ZM61.2278 43.672H63.7238V52.696H68.3478V55H61.2278V43.672ZM73.6615 43.672H76.1575V52.696H80.7815V55H73.6615V43.672ZM94.6696 43.672H97.1656V52.696H101.79V55H94.6696V43.672ZM106.975 43.672H109.471V55H106.975V43.672ZM122.99 46.616C122.744 46.3173 122.44 46.088 122.078 45.928C121.726 45.768 121.315 45.688 120.846 45.688C120.376 45.688 119.939 45.7787 119.534 45.96C119.139 46.1413 118.792 46.3973 118.494 46.728C118.206 47.048 117.976 47.432 117.806 47.88C117.646 48.328 117.566 48.8133 117.566 49.336C117.566 49.8693 117.646 50.36 117.806 50.808C117.976 51.2453 118.206 51.6293 118.494 51.96C118.782 52.28 119.118 52.5307 119.502 52.712C119.896 52.8933 120.318 52.984 120.766 52.984C121.278 52.984 121.731 52.8773 122.126 52.664C122.52 52.4507 122.846 52.152 123.102 51.768L125.182 53.32C124.702 53.992 124.094 54.488 123.358 54.808C122.622 55.128 121.864 55.288 121.086 55.288C120.2 55.288 119.384 55.1493 118.638 54.872C117.891 54.5947 117.246 54.2 116.702 53.688C116.158 53.1653 115.731 52.536 115.422 51.8C115.123 51.064 114.974 50.2427 114.974 49.336C114.974 48.4293 115.123 47.608 115.422 46.872C115.731 46.136 116.158 45.512 116.702 45C117.246 44.4773 117.891 44.0773 118.638 43.8C119.384 43.5227 120.2 43.384 121.086 43.384C121.406 43.384 121.736 43.416 122.078 43.48C122.43 43.5333 122.771 43.624 123.102 43.752C123.443 43.88 123.768 44.0507 124.078 44.264C124.387 44.4773 124.664 44.7387 124.91 45.048L122.99 46.616ZM130.471 43.672H138.167V45.976H132.967V48.088H137.879V50.392H132.967V52.696H138.455V55H130.471V43.672ZM144.293 43.672H147.685L152.501 51.544H152.533V43.672H155.029V55H151.765L146.821 46.936H146.789V55H144.293V43.672ZM166.78 46.44C166.577 46.184 166.3 45.9973 165.948 45.88C165.607 45.752 165.281 45.688 164.972 45.688C164.791 45.688 164.604 45.7093 164.412 45.752C164.22 45.7947 164.039 45.864 163.868 45.96C163.697 46.0453 163.559 46.1627 163.452 46.312C163.345 46.4613 163.292 46.6427 163.292 46.856C163.292 47.1973 163.42 47.4587 163.676 47.64C163.932 47.8213 164.252 47.976 164.636 48.104C165.031 48.232 165.452 48.36 165.9 48.488C166.348 48.616 166.764 48.7973 167.148 49.032C167.543 49.2667 167.868 49.5813 168.124 49.976C168.38 50.3707 168.508 50.8987 168.508 51.56C168.508 52.1893 168.391 52.7387 168.156 53.208C167.921 53.6773 167.601 54.0667 167.196 54.376C166.801 54.6853 166.337 54.9147 165.804 55.064C165.281 55.2133 164.727 55.288 164.14 55.288C163.404 55.288 162.721 55.176 162.092 54.952C161.463 54.728 160.876 54.3653 160.332 53.864L162.108 51.912C162.364 52.2533 162.684 52.52 163.068 52.712C163.463 52.8933 163.868 52.984 164.284 52.984C164.487 52.984 164.689 52.9627 164.892 52.92C165.105 52.8667 165.292 52.792 165.452 52.696C165.623 52.6 165.756 52.4773 165.852 52.328C165.959 52.1787 166.012 52.0027 166.012 51.8C166.012 51.4587 165.879 51.192 165.612 51C165.356 50.7973 165.031 50.6267 164.636 50.488C164.241 50.3493 163.815 50.2107 163.356 50.072C162.897 49.9333 162.471 49.7467 162.076 49.512C161.681 49.2773 161.351 48.968 161.084 48.584C160.828 48.2 160.7 47.6933 160.7 47.064C160.7 46.456 160.817 45.9227 161.052 45.464C161.297 45.0053 161.617 44.6213 162.012 44.312C162.417 44.0027 162.881 43.7733 163.404 43.624C163.927 43.464 164.465 43.384 165.02 43.384C165.66 43.384 166.279 43.4747 166.876 43.656C167.473 43.8373 168.012 44.1413 168.492 44.568L166.78 46.44ZM174.303 43.672H181.999V45.976H176.799V48.088H181.711V50.392H176.799V52.696H182.287V55H174.303V43.672ZM193.725 46.44C193.523 46.184 193.245 45.9973 192.893 45.88C192.552 45.752 192.227 45.688 191.917 45.688C191.736 45.688 191.549 45.7093 191.357 45.752C191.165 45.7947 190.984 45.864 190.813 45.96C190.643 46.0453 190.504 46.1627 190.397 46.312C190.291 46.4613 190.237 46.6427 190.237 46.856C190.237 47.1973 190.365 47.4587 190.621 47.64C190.877 47.8213 191.197 47.976 191.581 48.104C191.976 48.232 192.397 48.36 192.845 48.488C193.293 48.616 193.709 48.7973 194.093 49.032C194.488 49.2667 194.813 49.5813 195.069 49.976C195.325 50.3707 195.453 50.8987 195.453 51.56C195.453 52.1893 195.336 52.7387 195.101 53.208C194.867 53.6773 194.547 54.0667 194.141 54.376C193.747 54.6853 193.283 54.9147 192.749 55.064C192.227 55.2133 191.672 55.288 191.085 55.288C190.349 55.288 189.667 55.176 189.037 54.952C188.408 54.728 187.821 54.3653 187.277 53.864L189.053 51.912C189.309 52.2533 189.629 52.52 190.013 52.712C190.408 52.8933 190.813 52.984 191.229 52.984C191.432 52.984 191.635 52.9627 191.837 52.92C192.051 52.8667 192.237 52.792 192.397 52.696C192.568 52.6 192.701 52.4773 192.797 52.328C192.904 52.1787 192.957 52.0027 192.957 51.8C192.957 51.4587 192.824 51.192 192.557 51C192.301 50.7973 191.976 50.6267 191.581 50.488C191.187 50.3493 190.76 50.2107 190.301 50.072C189.843 49.9333 189.416 49.7467 189.021 49.512C188.627 49.2773 188.296 48.968 188.029 48.584C187.773 48.2 187.645 47.6933 187.645 47.064C187.645 46.456 187.763 45.9227 187.997 45.464C188.243 45.0053 188.563 44.6213 188.957 44.312C189.363 44.0027 189.827 43.7733 190.349 43.624C190.872 43.464 191.411 43.384 191.965 43.384C192.605 43.384 193.224 43.4747 193.821 43.656C194.419 43.8373 194.957 44.1413 195.437 44.568L193.725 46.44Z" fill="#FAFF00"/>
</g>
<defs>
<filter id="filter0_di_2_17692" x="0.0426025" y="0.180054" width="202.039" height="41.1959" filterUnits="userSpaceOnUse" color-interpolation-filters="sRGB">
<feFlood flood-opacity="0" result="BackgroundImageFix"/>
<feColorMatrix in="SourceAlpha" type="matrix" values="0 0 0 0 0 0 0 0 0 0 0 0 0 0 0 0 0 0 127 0" result="hardAlpha"/>
<feOffset dx="1" dy="3"/>
<feGaussianBlur stdDeviation="2"/>
<feComposite in2="hardAlpha" operator="out"/>
<feColorMatrix type="matrix" values="0 0 0 0 0 0 0 0 0 0 0 0 0 0 0 0 0 0 0.25 0"/>
<feBlend mode="normal" in2="BackgroundImageFix" result="effect1_dropShadow_2_17692"/>
<feBlend mode="normal" in="SourceGraphic" in2="effect1_dropShadow_2_17692" result="shape"/>
<feColorMatrix in="SourceAlpha" type="matrix" values="0 0 0 0 0 0 0 0 0 0 0 0 0 0 0 0 0 0 127 0" result="hardAlpha"/>
<feOffset dy="4"/>
<feGaussianBlur stdDeviation="2"/>
<feComposite in2="hardAlpha" operator="arithmetic" k2="-1" k3="1"/>
<feColorMatrix type="matrix" values="0 0 0 0 1 0 0 0 0 1 0 0 0 0 1 0 0 0 0.25 0"/>
<feBlend mode="normal" in2="shape" result="effect2_innerShadow_2_17692"/>
</filter>
<filter id="filter1_di_2_17692" x="0.210632" y="42.384" width="199.243" height="17.9039" filterUnits="userSpaceOnUse" color-interpolation-filters="sRGB">
<feFlood flood-opacity="0" result="BackgroundImageFix"/>
<feColorMatrix in="SourceAlpha" type="matrix" values="0 0 0 0 0 0 0 0 0 0 0 0 0 0 0 0 0 0 127 0" result="hardAlpha"/>
<feOffset dx="1" dy="2"/>
<feGaussianBlur stdDeviation="1.5"/>
<feComposite in2="hardAlpha" operator="out"/>
<feColorMatrix type="matrix" values="0 0 0 0 0 0 0 0 0 0 0 0 0 0 0 0 0 0 0.25 0"/>
<feBlend mode="normal" in2="BackgroundImageFix" result="effect1_dropShadow_2_17692"/>
<feBlend mode="normal" in="SourceGraphic" in2="effect1_dropShadow_2_17692" result="shape"/>
<feColorMatrix in="SourceAlpha" type="matrix" values="0 0 0 0 0 0 0 0 0 0 0 0 0 0 0 0 0 0 127 0" result="hardAlpha"/>
<feOffset dy="4"/>
<feGaussianBlur stdDeviation="1.5"/>
<feComposite in2="hardAlpha" operator="arithmetic" k2="-1" k3="1"/>
<feColorMatrix type="matrix" values="0 0 0 0 1 0 0 0 0 1 0 0 0 0 1 0 0 0 0.25 0"/>
<feBlend mode="normal" in2="shape" result="effect2_innerShadow_2_17692"/>
</filter>
</defs>
</svg>
