<svg width="1440" height="180" viewBox="0 0 1440 180" fill="none" xmlns="http://www.w3.org/2000/svg">
<rect width="1440" height="180" fill="#9CDDF8"/>
<path opacity="0.3" fill-rule="evenodd" clip-rule="evenodd" d="M719.431 188.001C701.931 -61.2203 454.279 -106.867 329.478 41.7826C161.935 241.353 -35.3528 64.2263 -43.86 232.1C-50.0516 354.181 150.203 481.996 354.76 475.782C559.313 469.564 731.183 355.354 719.431 188.001Z" fill="url(#paint0_radial_1939_157875)"/>
<path opacity="0.3" fill-rule="evenodd" clip-rule="evenodd" d="M1345.36 136.601C1327 175.609 1270.87 216.793 1214.99 217.389C1175.46 214.241 1173.26 186.245 1190.91 174.55C1210.08 160.879 1228.56 144.431 1224.88 120.318C1217.95 81.978 1285.12 41.974 1326.21 61.362C1348.8 72.282 1358.24 110.159 1345.36 136.601Z" fill="url(#paint1_radial_1939_157875)"/>
<path opacity="0.3" fill-rule="evenodd" clip-rule="evenodd" d="M1242.46 -29.5189C1261.76 -41.3189 1280 -27.8656 1277.59 -11.7456C1273.79 6.88109 1261.09 30.3877 1239.28 39.041C1226.99 42.9877 1212.64 31.6544 1223.41 13.6544C1231.24 -0.105579 1226.8 -17.3589 1242.46 -29.5189Z" fill="url(#paint2_radial_1939_157875)"/>
<path opacity="0.3" fill-rule="evenodd" clip-rule="evenodd" d="M1144.67 28.9803C1114.82 10.5991 1086.6 31.5558 1090.33 56.6664C1096.21 85.6818 1115.85 122.299 1149.58 135.778C1168.61 141.926 1190.79 124.272 1174.13 96.2329C1162.02 74.7985 1168.89 47.9224 1144.67 28.9803Z" fill="url(#paint3_radial_1939_157875)"/>
<defs>
<radialGradient id="paint0_radial_1939_157875" cx="0" cy="0" r="1" gradientUnits="userSpaceOnUse" gradientTransform="translate(601.58 480.152) scale(793.257 862.2)">
<stop stop-color="#9CDDF8"/>
<stop offset="0.3761" stop-color="#10C6FF"/>
<stop offset="0.5904" stop-color="#34B6FF"/>
<stop offset="0.764" stop-color="#25CBFF"/>
<stop offset="0.915" stop-color="#38DAFE"/>
<stop offset="1" stop-color="#46C7FE"/>
</radialGradient>
<radialGradient id="paint1_radial_1939_157875" cx="0" cy="0" r="1" gradientUnits="userSpaceOnUse" gradientTransform="translate(1324.7 55.0207) scale(177.373 267.597)">
<stop stop-color="#9CDDF8"/>
<stop offset="0.3761" stop-color="#10C6FF"/>
<stop offset="0.5904" stop-color="#34B6FF"/>
<stop offset="0.764" stop-color="#25CBFF"/>
<stop offset="0.915" stop-color="#38DAFE"/>
<stop offset="1" stop-color="#46C7FE"/>
</radialGradient>
<radialGradient id="paint2_radial_1939_157875" cx="0" cy="0" r="1" gradientUnits="userSpaceOnUse" gradientTransform="translate(1268.79 -34.5906) scale(60.4161 122.644)">
<stop stop-color="#9CDDF8"/>
<stop offset="0.3761" stop-color="#10C6FF"/>
<stop offset="0.5904" stop-color="#34B6FF"/>
<stop offset="0.764" stop-color="#25CBFF"/>
<stop offset="0.915" stop-color="#38DAFE"/>
<stop offset="1" stop-color="#46C7FE"/>
</radialGradient>
<radialGradient id="paint3_radial_1939_157875" cx="0" cy="0" r="1" gradientUnits="userSpaceOnUse" gradientTransform="translate(1103.95 21.08) rotate(180) scale(93.4465 191.046)">
<stop stop-color="#9CDDF8"/>
<stop offset="0.3761" stop-color="#10C6FF"/>
<stop offset="0.5904" stop-color="#34B6FF"/>
<stop offset="0.764" stop-color="#25CBFF"/>
<stop offset="0.915" stop-color="#38DAFE"/>
<stop offset="1" stop-color="#46C7FE"/>
</radialGradient>
</defs>
</svg>
