<svg width="161" height="175" viewBox="0 0 161 175" fill="none" xmlns="http://www.w3.org/2000/svg">
<g clip-path="url(#clip0_875_110660)">
<path d="M126.48 37.076C127.164 37.1 127.866 37.22 128.586 37.436C129.306 37.652 129.948 37.988 130.512 38.444C129.924 39.116 129.342 39.77 128.766 40.406C128.466 40.106 128.106 39.872 127.686 39.704C127.266 39.536 126.864 39.446 126.48 39.434V42.314C126.948 42.458 127.422 42.62 127.902 42.8C128.382 42.98 128.82 43.22 129.216 43.52C129.612 43.82 129.936 44.186 130.188 44.618C130.44 45.05 130.566 45.59 130.566 46.238C130.566 46.898 130.446 47.474 130.206 47.966C129.978 48.446 129.666 48.848 129.27 49.172C128.886 49.496 128.442 49.742 127.938 49.91C127.446 50.078 126.936 50.168 126.408 50.18V51.494H125.076V50.18C124.296 50.156 123.51 50.012 122.718 49.748C121.926 49.472 121.23 49.064 120.63 48.524C120.942 48.2 121.254 47.876 121.566 47.552C121.89 47.216 122.208 46.88 122.52 46.544C122.676 46.724 122.862 46.892 123.078 47.048C123.294 47.192 123.516 47.318 123.744 47.426C123.972 47.534 124.2 47.624 124.428 47.696C124.656 47.756 124.872 47.786 125.076 47.786V44.636C124.56 44.492 124.062 44.33 123.582 44.15C123.114 43.97 122.7 43.736 122.34 43.448C121.98 43.16 121.692 42.812 121.476 42.404C121.26 41.984 121.152 41.474 121.152 40.874C121.152 40.286 121.272 39.764 121.512 39.308C121.752 38.84 122.064 38.45 122.448 38.138C122.832 37.814 123.264 37.568 123.744 37.4C124.224 37.22 124.698 37.118 125.166 37.094V35.852H126.48V37.076ZM125.166 39.398C124.842 39.434 124.548 39.56 124.284 39.776C124.032 39.98 123.906 40.28 123.906 40.676C123.906 41.06 124.02 41.354 124.248 41.558C124.476 41.762 124.782 41.912 125.166 42.008V39.398ZM126.408 47.804C126.816 47.78 127.134 47.648 127.362 47.408C127.602 47.156 127.722 46.82 127.722 46.4C127.722 45.98 127.596 45.668 127.344 45.464C127.104 45.248 126.792 45.08 126.408 44.96V47.804ZM140.907 47.516V50H138.081V47.516H132.087V44.978L137.271 37.256H140.889V45.068H142.653V47.516H140.907ZM138.099 40.352H138.045L135.021 45.068H138.099V40.352ZM153.749 45.788C153.749 46.568 153.611 47.246 153.335 47.822C153.059 48.386 152.687 48.854 152.219 49.226C151.763 49.598 151.241 49.874 150.653 50.054C150.065 50.246 149.459 50.342 148.835 50.342C148.259 50.342 147.707 50.264 147.179 50.108C146.663 49.964 146.189 49.754 145.757 49.478C145.337 49.202 144.971 48.866 144.659 48.47C144.359 48.062 144.137 47.606 143.993 47.102L146.747 46.256C146.879 46.7 147.125 47.066 147.485 47.354C147.857 47.642 148.295 47.786 148.799 47.786C149.315 47.786 149.759 47.63 150.131 47.318C150.515 47.006 150.707 46.544 150.707 45.932C150.707 45.56 150.629 45.248 150.473 44.996C150.317 44.744 150.113 44.546 149.861 44.402C149.621 44.246 149.345 44.138 149.033 44.078C148.721 44.018 148.409 43.988 148.097 43.988C147.641 43.988 147.119 44.042 146.531 44.15C145.955 44.246 145.439 44.378 144.983 44.546L145.289 37.256H153.101V39.848H147.971L147.863 41.864C148.055 41.816 148.265 41.786 148.493 41.774C148.733 41.75 148.949 41.738 149.141 41.738C149.777 41.738 150.377 41.822 150.941 41.99C151.505 42.158 151.991 42.416 152.399 42.764C152.819 43.1 153.149 43.52 153.389 44.024C153.629 44.528 153.749 45.116 153.749 45.788Z" fill="white"/>
<path d="M215 134H210.997C210.997 128.863 209.71 123.917 207.292 119.522L210.795 117.577C213.539 122.564 215 128.178 215 134ZM199.212 105.242L197.073 108.64L196.228 108.103L198.366 104.704L199.212 105.242ZM199.212 105.242L197.073 108.64C192.837 105.95 187.99 104.368 182.903 104.072L183.135 100.058C188.903 100.394 194.406 102.19 199.212 105.242ZM167.059 100H166.058V104.021H167.059V100ZM167.059 100V104.021H151.049V100H167.059ZM135.032 100H134.031V104.021H135.032V100ZM135.032 100V104.021H119.019V100H135.032ZM103.007 100H102.006V104.021H103.007V100ZM103.007 100V104.021H86.993V100H103.007ZM70.9818 100H69.9811V104.021H70.9818V100ZM70.9818 100V104.021H54.9688V100H70.9818ZM38.9591 100H37.9584V104.021H38.9591V100ZM38.9591 100V104.021H32.8123C29.6719 104.021 26.6007 104.506 23.6746 105.45L22.4509 101.622C25.7714 100.551 29.2553 100 32.8123 100H38.9591ZM8.2049 110.647L11.1137 113.409L10.4261 114.139L7.51736 111.377L8.2049 110.647ZM8.2049 110.647L11.1137 113.409C7.65463 117.084 5.16476 121.576 3.90308 126.488L0.0269651 125.483C1.4589 119.909 4.28336 114.813 8.2049 110.647ZM0 142.411L3.87933 141.419L4.12621 142.393L0.246887 143.385L0 142.411ZM0 142.411L3.87933 141.419C5.12532 146.335 7.60081 150.836 11.0481 154.521L8.13062 157.274C4.22235 153.096 1.41414 147.991 0 142.411ZM22.4509 166.378L23.6746 162.55L24.6274 162.857L23.4038 166.685L22.4509 166.378ZM22.4509 166.378L23.6746 162.55C26.6005 163.493 29.6717 163.979 32.8107 163.979H38.8342V168H32.8107C29.2551 168 25.7712 167.449 22.4509 166.378ZM54.8449 168H55.8457V163.979H54.8449V168ZM54.8449 168V163.979H70.8564V168H54.8449ZM86.8632 168H87.8639V163.979H86.8632V168ZM86.8632 168V163.979H102.877V168H86.8632ZM118.889 168H119.89V163.979H118.889V168ZM118.889 168V163.979H134.902V168H118.889ZM150.917 168H151.918V163.979H150.917V168ZM150.917 168V163.979H166.928V168H150.917ZM183.053 167.947L182.83 163.932L183.83 163.877L184.052 167.891L183.053 167.947ZM183.053 167.947L182.83 163.932C187.918 163.648 192.768 162.078 197.011 159.399L199.142 162.803C194.328 165.842 188.822 167.625 183.053 167.947ZM210.761 150.485L207.262 148.533L207.747 147.654L211.247 149.606L210.761 150.485ZM210.761 150.485L207.262 148.533C209.69 144.142 210.986 139.199 210.997 134.062L215 134.071C214.988 139.892 213.516 145.503 210.761 150.485Z" fill="#FFD721"/>
<path fill-rule="evenodd" clip-rule="evenodd" d="M199.786 115.317C160.823 106.292 94.3518 90.896 55.3886 81.871C38.2634 77.9045 21.165 88.5705 17.1973 105.694C13.2303 122.818 23.8969 139.914 41.0228 143.881C79.9852 152.906 146.457 168.302 185.42 177.327C202.545 181.293 219.644 170.628 223.611 153.505C227.578 136.381 216.911 119.285 199.786 115.317Z" fill="#FFD721"/>
<path d="M49.5696 138.237C63.5316 138.237 74.8501 126.92 74.8501 112.959C74.8501 98.9988 63.5316 87.6816 49.5696 87.6816C35.6075 87.6816 24.2891 98.9988 24.2891 112.959C24.2891 126.92 35.6075 138.237 49.5696 138.237Z" fill="#EBF6FF"/>
<mask id="mask0_875_110660" style="mask-type:alpha" maskUnits="userSpaceOnUse" x="24" y="87" width="51" height="52">
<path d="M49.5696 138.237C63.5316 138.237 74.8501 126.92 74.8501 112.959C74.8501 98.9988 63.5316 87.6816 49.5696 87.6816C35.6075 87.6816 24.2891 98.9988 24.2891 112.959C24.2891 126.92 35.6075 138.237 49.5696 138.237Z" fill="white"/>
</mask>
<g mask="url(#mask0_875_110660)">
<path fill-rule="evenodd" clip-rule="evenodd" d="M53.8557 124.392C53.6443 128.914 50.569 145.146 49.3578 145.204C48.0564 145.266 32.4996 141.568 33.3162 140.906C34.9985 139.542 39.4892 124.97 38.8211 120.364C38.578 118.687 44.1486 112.391 46.8806 112.839" fill="#FFC1B1"/>
<path fill-rule="evenodd" clip-rule="evenodd" d="M53.7033 126.131C53.7805 125.447 53.8332 124.858 53.8548 124.392L46.8797 112.839C44.1477 112.391 38.5771 118.687 38.8202 120.364C39.2257 123.16 37.7309 129.625 36.1172 134.581C37.6927 135.883 39.4904 136.666 41.4274 136.783C46.5204 137.093 51.208 132.724 53.7033 126.131Z" fill="#FF9898"/>
<path fill-rule="evenodd" clip-rule="evenodd" d="M49.3262 89.3553C42.2212 88.9239 35.9046 97.5977 35.2287 108.714C34.5535 119.829 39.7735 129.204 46.8785 129.635C53.9835 130.067 60.3 121.393 60.9752 110.278C61.6512 99.1615 56.4312 89.7866 49.3262 89.3553Z" fill="#FFC1B1"/>
<path fill-rule="evenodd" clip-rule="evenodd" d="M36.6941 103.663C34.2572 103.515 32.124 105.94 31.9336 109.075C31.7431 112.21 33.5668 114.876 36.0037 115.024C38.4405 115.172 40.5737 112.747 40.7642 109.611C40.9546 106.476 39.1309 103.811 36.6941 103.663Z" fill="#FFC1B1"/>
<path fill-rule="evenodd" clip-rule="evenodd" d="M49.9321 82.3897C42.641 75.4479 28.0501 91.5345 36.1867 104.081C37.2038 101.994 39.0679 100.492 40.9313 99.0772C45.1139 95.9028 52.6626 95.3416 52.6294 88.5901C52.6251 87.656 52.4628 86.7227 52.1829 85.8333C51.8157 84.6662 51.1202 83.5914 50.3202 82.6768L49.9321 82.3897Z" fill="#001B69"/>
<path fill-rule="evenodd" clip-rule="evenodd" d="M51.8731 81.4058C44.7025 83.947 50.4765 92.3784 54.4146 95.607C56.234 97.0979 58.1421 98.6862 59.5069 100.629C60.1879 101.597 60.0812 102.753 60.5861 103.807C74.9924 96.6117 63.0641 77.4386 51.8731 81.4058Z" fill="#001B69"/>
</g>
<path fill-rule="evenodd" clip-rule="evenodd" d="M190.036 0.339844C161.697 0.339844 120.452 0.339844 92.1125 0.339844C74.5336 0.339844 60.2832 14.5893 60.2832 32.1655C60.2832 49.7431 74.5336 63.9918 92.1125 63.9918C120.452 63.9918 161.697 63.9918 190.036 63.9918C207.615 63.9918 221.865 49.7431 221.865 32.1662C221.865 14.5893 207.615 0.339844 190.036 0.339844Z" fill="#F43C39"/>
<path d="M94.054 57.4438C108.016 57.4438 119.334 46.1267 119.334 32.1662C119.334 18.2058 108.016 6.88867 94.054 6.88867C80.0919 6.88867 68.7734 18.2058 68.7734 32.1662C68.7734 46.1267 80.0919 57.4438 94.054 57.4438Z" fill="white"/>
<mask id="mask1_875_110660" style="mask-type:alpha" maskUnits="userSpaceOnUse" x="68" y="6" width="52" height="52">
<path d="M94.054 57.4438C108.016 57.4438 119.334 46.1267 119.334 32.1662C119.334 18.2058 108.016 6.88867 94.054 6.88867C80.0919 6.88867 68.7734 18.2058 68.7734 32.1662C68.7734 46.1267 80.0919 57.4438 94.054 57.4438Z" fill="white"/>
</mask>
<g mask="url(#mask1_875_110660)">
<path fill-rule="evenodd" clip-rule="evenodd" d="M85.9724 44.2909C85.2352 47.6645 84.2959 60.234 85.1768 60.5161C86.1239 60.819 98.3184 61.1652 97.8473 60.5161C96.877 59.178 96.4456 47.5534 97.8473 44.2909C98.3573 43.1029 95.4956 37.3628 93.3941 37.1543" fill="#FFC1B1"/>
<path fill-rule="evenodd" clip-rule="evenodd" d="M85.7402 45.6016C85.8181 45.0829 85.8968 44.6379 85.9725 44.2909L93.3942 37.1543C95.4956 37.3628 98.3574 43.1029 97.8474 44.2909C96.9969 46.2709 96.8208 51.3302 97.0315 55.3017C95.6132 55.9495 94.1344 56.1716 92.6829 55.8759C88.8689 55.0983 86.2777 50.9529 85.7402 45.6016Z" fill="#FF9898"/>
<path fill-rule="evenodd" clip-rule="evenodd" d="M84.4447 41.0893C78.776 42.9856 73.1369 30.9779 80.4367 26.8174C82.686 25.5349 86.9299 24.6319 88.8387 26.6306C89.9504 27.7948 90.1711 29.417 90.0478 30.9044C89.923 32.4126 89.4699 33.8913 88.921 35.3123C88.1758 37.2411 87.1283 39.0119 85.2714 40.215" fill="#F96701"/>
<path fill-rule="evenodd" clip-rule="evenodd" d="M96.2293 19.3653C101.55 20.4502 104.492 28.0896 102.795 36.4142C101.097 44.7395 95.399 50.6175 90.078 49.5326C84.7563 48.4478 81.8145 40.8084 83.5119 32.4838C85.2093 24.1584 90.9076 18.2805 96.2293 19.3653Z" fill="#FFC1B1"/>
<path fill-rule="evenodd" clip-rule="evenodd" d="M97.1965 47.2635C98.2865 45.3593 100.097 43.6094 100.992 41.7448C102.29 39.0413 103.184 36.1056 102.601 33.1014C102.264 31.3623 101.588 29.5972 100.495 28.1878C98.039 25.022 92.5867 23.1184 93.9444 18.1493C94.1327 17.4619 94.4364 16.8055 94.8187 16.2054C95.3194 15.4185 96.0437 14.7635 96.8141 14.2478L97.1575 14.1122C103.891 9.3508 111.297 22.9763 106.842 31.5311C106.166 32.8301 107.353 34.518 108.149 35.7709C109.006 37.1219 110.43 38.1109 111.48 39.3061C113.695 41.8285 113.299 45.2742 114.269 48.5763C119.214 65.4218 114.603 59.119 97.0139 59.8872C96.3142 59.9175 95.5062 48.9896 97.1965 47.2635Z" fill="#F96701"/>
<path fill-rule="evenodd" clip-rule="evenodd" d="M95.9206 13.0041C100.703 16.2933 94.783 21.3663 91.2431 22.9683C89.6084 23.7076 87.8886 24.5018 86.4985 25.6638C85.8059 26.243 85.3457 27.0033 84.765 27.6799C84.1727 28.3709 83.2674 28.8116 82.2596 28.1581C75.4583 23.7466 88.4571 7.872 95.9206 13.0041Z" fill="#F96701"/>
</g>
</g>
<defs>
<clipPath id="clip0_875_110660">
<rect width="175" height="175" fill="white"/>
</clipPath>
</defs>
</svg>
